HIERARCHY
ROOT Hips
{
	OFFSET 0.000000 35.082581 0.000000
	CHANNELS 6 Xposition Yposition Zposition Xrotation Yrotation Zrotation 
	JOINT Spine
	{
		OFFSET 0.000000 6.876099 0.125700
		CHANNELS 3 Xrotation Yrotation Zrotation
		JOINT Spine1
		{
			OFFSET 0.000000 5.730043 0.104720
			CHANNELS 3 Xrotation Yrotation Zrotation
			JOINT Spine1_split
			{
				OFFSET 0.000000 5.730043 0.104720
				CHANNELS 3 Xrotation Yrotation Zrotation
				JOINT Spine2
				{
					OFFSET 0.000000 5.730043 0.104720
					CHANNELS 3 Xrotation Yrotation Zrotation
					JOINT Neck
					{
						OFFSET 0.000000 10.314075 0.188496
						CHANNELS 3 Xrotation Yrotation Zrotation
						JOINT Head
						{
							OFFSET 0.000000 7.643700 -2.377400
							CHANNELS 3 Xrotation Yrotation Zrotation
							JOINT HeadTop_End
							{
								OFFSET 0.000000 43.788605 -13.619600
								CHANNELS 3 Xrotation Yrotation Zrotation
								End Site
								{
									OFFSET 0.000000 0.000000 0.000000
								}
							}
						}
					}
					JOINT LeftShoulder
					{
						OFFSET 2.196100 4.412489 0.087492
						CHANNELS 3 Xrotation Yrotation Zrotation
						JOINT LeftShoulder_split
						{
							OFFSET 2.196100 4.412489 0.087492
							CHANNELS 3 Xrotation Yrotation Zrotation
							JOINT LeftArm
							{
								OFFSET 8.771219 -2.981674 -0.026999
								CHANNELS 3 Xrotation Yrotation Zrotation
								JOINT LeftForeArm
								{
									OFFSET 8.512804 0.000000 -0.000000
									CHANNELS 3 Xrotation Yrotation Zrotation
									JOINT LeftHand
									{
										OFFSET 18.484802 0.000000 -0.000000
										CHANNELS 3 Xrotation Yrotation Zrotation
										JOINT LeftHandThumb1
										{
											OFFSET 2.499420 -1.158070 2.653252
											CHANNELS 3 Xrotation Yrotation Zrotation
											JOINT LeftHandThumb2
											{
												OFFSET 2.370079 -1.368366 1.368366
												CHANNELS 3 Xrotation Yrotation Zrotation
												JOINT LeftHandThumb3
												{
													OFFSET 2.676727 -1.545410 1.545409
													CHANNELS 3 Xrotation Yrotation Zrotation
													JOINT LeftHandThumb4
													{
														OFFSET 1.692226 -0.977005 0.977007
														CHANNELS 3 Xrotation Yrotation Zrotation
														End Site
														{
															OFFSET 0.000000 0.000000 0.000000
														}
													}
												}
											}
										}
										JOINT LeftHandIndex1
										{
											OFFSET 7.924831 -0.457527 2.345128
											CHANNELS 3 Xrotation Yrotation Zrotation
											JOINT LeftHandIndex2
											{
												OFFSET 3.643303 0.000000 0.000000
												CHANNELS 3 Xrotation Yrotation Zrotation
												JOINT LeftHandIndex3
												{
													OFFSET 3.810799 0.000000 0.000000
													CHANNELS 3 Xrotation Yrotation Zrotation
													JOINT LeftHandIndex4
													{
														OFFSET 2.403702 0.000000 0.000000
														CHANNELS 3 Xrotation Yrotation Zrotation
														End Site
														{
															OFFSET 0.000000 0.000000 0.000000
														}
													}
												}
											}
										}
										JOINT LeftHandMiddle1
										{
											OFFSET 8.563995 0.000000 -0.000000
											CHANNELS 3 Xrotation Yrotation Zrotation
											JOINT LeftHandMiddle2
											{
												OFFSET 3.861618 0.000000 0.000000
												CHANNELS 3 Xrotation Yrotation Zrotation
												JOINT LeftHandMiddle3
												{
													OFFSET 3.701603 0.000000 0.000000
													CHANNELS 3 Xrotation Yrotation Zrotation
													JOINT LeftHandMiddle4
													{
														OFFSET 2.322544 0.000000 0.000000
														CHANNELS 3 Xrotation Yrotation Zrotation
														End Site
														{
															OFFSET 0.000000 0.000000 0.000000
														}
													}
												}
											}
										}
										JOINT LeftHandRing1
										{
											OFFSET 8.426460 -0.424637 -3.286992
											CHANNELS 3 Xrotation Yrotation Zrotation
											JOINT LeftHandRing2
											{
												OFFSET 3.126408 0.000000 0.000000
												CHANNELS 3 Xrotation Yrotation Zrotation
												JOINT LeftHandRing3
												{
													OFFSET 3.085026 0.000000 0.000000
													CHANNELS 3 Xrotation Yrotation Zrotation
													JOINT LeftHandRing4
													{
														OFFSET 1.644005 0.000000 0.000000
														CHANNELS 3 Xrotation Yrotation Zrotation
														End Site
														{
															OFFSET 0.000000 0.000000 0.000000
														}
													}
												}
											}
										}
									}
								}
							}
						}
					}
					JOINT RightShoulder
					{
						OFFSET -2.196100 4.412496 0.070690
						CHANNELS 3 Xrotation Yrotation Zrotation
						JOINT RightShoulder_split
						{
							OFFSET -2.196100 4.412496 0.070690
							CHANNELS 3 Xrotation Yrotation Zrotation
							JOINT RightArm
							{
								OFFSET -8.771282 -2.981682 -0.094208
								CHANNELS 3 Xrotation Yrotation Zrotation
								JOINT RightForeArm
								{
									OFFSET -8.494598 0.000000 0.000000
									CHANNELS 3 Xrotation Yrotation Zrotation
									JOINT RightHand
									{
										OFFSET -18.483803 0.000000 0.000001
										CHANNELS 3 Xrotation Yrotation Zrotation
										JOINT RightHandThumb1
										{
											OFFSET -2.527351 -1.008072 2.575253
											CHANNELS 3 Xrotation Yrotation Zrotation
											JOINT RightHandThumb2
											{
												OFFSET -2.321518 -1.340328 1.340329
												CHANNELS 3 Xrotation Yrotation Zrotation
												JOINT RightHandThumb3
												{
													OFFSET -2.657753 -1.534454 1.534455
													CHANNELS 3 Xrotation Yrotation Zrotation
													JOINT RightHandThumb4
													{
														OFFSET -1.807510 -1.043568 1.043567
														CHANNELS 3 Xrotation Yrotation Zrotation
														End Site
														{
															OFFSET 0.000000 0.000000 0.000000
														}
													}
												}
											}
										}
										JOINT RightHandIndex1
										{
											OFFSET -8.811420 0.015533 2.887987
											CHANNELS 3 Xrotation Yrotation Zrotation
											JOINT RightHandIndex2
											{
												OFFSET -3.537502 0.000000 0.000000
												CHANNELS 3 Xrotation Yrotation Zrotation
												JOINT RightHandIndex3
												{
													OFFSET -3.356201 0.000000 0.000000
													CHANNELS 3 Xrotation Yrotation Zrotation
													JOINT RightHandIndex4
													{
														OFFSET -1.933098 0.000000 0.000000
														CHANNELS 3 Xrotation Yrotation Zrotation
														End Site
														{
															OFFSET 0.000000 0.000000 0.000000
														}
													}
												}
											}
										}
										JOINT RightHandMiddle1
										{
											OFFSET -8.178135 0.000000 0.000000
											CHANNELS 3 Xrotation Yrotation Zrotation
											JOINT RightHandMiddle2
											{
												OFFSET -3.901302 0.000000 0.000000
												CHANNELS 3 Xrotation Yrotation Zrotation
												JOINT RightHandMiddle3
												{
													OFFSET -3.909599 0.000000 0.000000
													CHANNELS 3 Xrotation Yrotation Zrotation
													JOINT RightHandMiddle4
													{
														OFFSET -2.376003 0.000000 0.000000
														CHANNELS 3 Xrotation Yrotation Zrotation
														End Site
														{
															OFFSET 0.000000 0.000000 0.000000
														}
													}
												}
											}
										}
										JOINT RightHandRing1
										{
											OFFSET -7.559013 0.014137 -2.865403
											CHANNELS 3 Xrotation Yrotation Zrotation
											JOINT RightHandRing2
											{
												OFFSET -3.449306 0.000000 0.000000
												CHANNELS 3 Xrotation Yrotation Zrotation
												JOINT RightHandRing3
												{
													OFFSET -3.362106 0.000000 0.000000
													CHANNELS 3 Xrotation Yrotation Zrotation
													JOINT RightHandRing4
													{
														OFFSET -2.076401 0.000000 0.000000
														CHANNELS 3 Xrotation Yrotation Zrotation
														End Site
														{
															OFFSET 0.000000 0.000000 0.000000
														}
													}
												}
											}
										}
									}
								}
							}
						}
					}
				}
			}
		}
	}
	JOINT LeftUpLeg
	{
		OFFSET 10.205400 -3.823500 0.155100
		CHANNELS 3 Xrotation Yrotation Zrotation
		JOINT LeftLeg
		{
			OFFSET 0.708757 -12.982077 0.567790
			CHANNELS 3 Xrotation Yrotation Zrotation
			JOINT LeftFoot
			{
				OFFSET -0.708756 -10.717838 -2.184338
				CHANNELS 3 Xrotation Yrotation Zrotation
				JOINT LeftToeBase
				{
					OFFSET 0.108149 -7.191104 7.560241
					CHANNELS 3 Xrotation Yrotation Zrotation
					JOINT LeftToe_End
					{
						OFFSET 0.070230 0.081724 4.490308
						CHANNELS 3 Xrotation Yrotation Zrotation
						End Site
						{
							OFFSET 0.000000 0.000000 0.000000
						}
					}
				}
			}
		}
	}
	JOINT RightUpLeg
	{
		OFFSET -10.205400 -3.823500 0.005500
		CHANNELS 3 Xrotation Yrotation Zrotation
		JOINT RightLeg
		{
			OFFSET -0.708756 -12.982134 0.610632
			CHANNELS 3 Xrotation Yrotation Zrotation
			JOINT RightFoot
			{
				OFFSET 0.708754 -10.717769 -1.945823
				CHANNELS 3 Xrotation Yrotation Zrotation
				JOINT RightToeBase
				{
					OFFSET -0.108140 -7.191069 7.372968
					CHANNELS 3 Xrotation Yrotation Zrotation
					JOINT RightToe_End
					{
						OFFSET -0.070227 0.081735 4.479403
						CHANNELS 3 Xrotation Yrotation Zrotation
						End Site
						{
							OFFSET 0.000000 0.000000 0.000000
						}
					}
				}
			}
		}
	}
}
MOTION
Frames: 6
Frame Time: 0.016667
-0.301755 26.564713 0.292856 11.655836 -49.360722 11.305343 10.972036 2.699021 -2.069989 6.100716 5.566531 -4.284693 0.000000 0.000000 0.000000 -5.786931 6.328144 -3.046190 2.317272 9.363502 -0.265712 -4.145191 23.161793 -3.522659 -0.000001 0.000000 -0.000000 -1.915080 -16.511779 -2.939000 0.000000 0.000000 0.000000 -10.486674 2.625039 -45.366352 -22.934672 -26.042299 -16.052449 2.486693 -2.421337 6.911729 18.458421 -9.511673 13.216076 -1.151048 11.255591 -8.390538 5.706533 8.483121 -0.820702 -0.000004 0.000001 -0.000001 -1.232380 -5.767198 -0.192350 0.133057 -0.208727 -4.601619 0.055739 -0.448165 -7.568173 0.000002 -0.000000 0.000000 1.879048 4.660582 -4.596721 0.488070 -1.011731 -12.986308 0.650649 -1.351190 -16.553672 0.000004 0.000000 0.000001 3.021269 7.938965 -14.102991 -0.721403 -0.564644 -18.895741 -0.741458 -0.701368 -22.058557 0.000004 0.000002 0.000001 -5.102355 24.651546 1.530453 0.000000 0.000000 0.000000 6.852333 -35.149957 57.689246 -21.079514 44.888922 20.017008 -0.116052 35.721203 7.538557 55.149574 18.649540 -29.698284 -0.442578 -14.180531 7.313125 21.666994 -29.244500 9.142382 -0.000000 -0.000004 0.000001 5.673381 7.585037 36.844158 1.050473 3.824471 68.900237 0.499588 3.026031 62.196461 -0.000003 -0.000000 0.000001 -0.125683 1.886108 45.000766 -1.168995 3.204641 68.417629 -0.936403 1.813614 41.107555 0.000003 0.000001 -0.000002 -5.311999 1.216655 58.508814 -0.745208 1.667578 48.011298 -0.816469 1.840617 53.666572 0.000002 -0.000001 -0.000001 -69.352628 16.208374 51.971931 53.929722 -25.144426 2.808992 2.213316 2.700260 -19.144093 -0.942026 -6.111182 0.983191 0.000000 -0.000000 0.000000 -27.355230 4.523158 -38.848801 61.088597 11.597232 -5.601634 -37.638338 -11.607504 32.641570 0.528300 2.970167 1.471446 0.000000 -0.000002 -0.000000 
-0.227095 26.617691 0.245872 11.696356 -49.241566 11.131106 10.654997 2.735174 -1.745344 6.270521 5.497037 -4.598443 0.000000 0.000000 0.000000 -5.595392 6.320227 -3.336134 2.640499 9.509906 -0.611382 -4.329306 23.155525 -3.472933 -0.000001 -0.000000 -0.000000 -1.910399 -16.163899 -3.090395 0.000000 0.000000 0.000000 -12.030269 0.880606 -45.319173 -21.770883 -23.471163 -14.157621 2.477849 -3.270597 5.936771 18.463946 -9.514424 13.212510 -1.112728 11.306127 -8.396352 5.706539 8.483124 -0.820703 -0.000003 0.000005 -0.000003 -1.232419 -5.775703 -0.414997 0.131538 -0.226365 -4.993312 0.069751 -0.457810 -7.578643 0.000000 0.000003 -0.000002 1.878192 4.643276 -4.856703 0.484487 -1.023641 -13.186618 0.645921 -1.363656 -16.754007 -0.000002 -0.000003 0.000000 3.018613 7.917231 -14.361907 -0.723399 -0.572764 -19.096323 -0.743963 -0.709380 -22.259071 -0.000004 -0.000002 -0.000000 -5.012387 24.293286 1.216154 0.000000 0.000000 0.000000 6.254678 -34.836451 57.425649 -21.507397 44.701157 20.437191 -0.231541 33.998435 6.851896 55.149577 18.649536 -29.698281 -0.442579 -14.180530 7.313126 21.666996 -29.244503 9.142382 0.000001 -0.000000 0.000001 5.673383 7.585038 36.844151 1.050471 3.824472 68.900237 0.499587 3.026030 62.196461 -0.000001 -0.000001 0.000002 -0.125685 1.886111 45.000763 -1.168996 3.204643 68.417622 -0.936399 1.813615 41.107555 -0.000000 -0.000001 -0.000000 -5.312003 1.216663 58.508814 -0.745208 1.667573 48.011302 -0.816467 1.840620 53.666565 -0.000002 0.000001 0.000002 -69.684117 16.104587 51.874846 53.669649 -25.200692 2.792420 2.644573 2.681695 -18.972415 -0.941964 -6.111192 0.983096 0.000000 0.000000 -0.000000 -27.334634 4.387638 -38.439864 60.731351 11.285198 -5.696899 -37.382851 -11.748876 32.738712 0.626260 3.137383 1.326386 0.000000 -0.000005 -0.000000 
-0.151426 26.671406 0.176180 11.537888 -49.194055 11.034457 10.773152 2.656401 -1.892976 6.253145 5.455812 -4.730125 0.000000 0.000000 0.000000 -5.604866 6.319130 -3.448273 2.918538 9.797423 -0.772800 -4.285428 23.230976 -3.582200 0.000000 -0.000000 -0.000000 -1.950327 -16.377045 -3.316420 0.000000 0.000000 0.000000 -12.793726 0.478100 -45.036188 -20.515378 -22.352284 -13.137807 2.462302 -3.387135 5.660577 18.481160 -9.516279 13.200827 -1.002071 11.451884 -8.413316 5.706533 8.483124 -0.820702 0.000000 0.000001 -0.000000 -1.232748 -5.800255 -1.059693 0.126466 -0.277067 -6.121599 0.110135 -0.485633 -7.608797 0.000002 -0.000001 0.000001 1.875562 4.593691 -5.610077 0.475106 -1.053475 -13.766685 0.633528 -1.394478 -17.334084 0.000001 -0.000001 -0.000000 3.010617 7.854309 -15.112304 -0.730642 -0.599774 -19.676428 -0.752815 -0.736478 -22.839227 -0.000003 0.000001 -0.000001 -4.920671 23.574275 1.114851 0.000000 0.000000 0.000000 5.639828 -34.678069 56.669683 -22.473129 45.269616 21.754033 0.157394 31.484030 5.855151 55.149577 18.649538 -29.698281 -0.442579 -14.180530 7.313126 21.666998 -29.244493 9.142380 -0.000003 0.000001 0.000002 5.673383 7.585034 36.844151 1.050469 3.824468 68.900237 0.499587 3.026032 62.196461 -0.000001 0.000000 -0.000001 -0.125686 1.886108 45.000763 -1.168995 3.204651 68.417622 -0.936399 1.813617 41.107555 0.000001 0.000000 -0.000000 -5.312004 1.216661 58.508814 -0.745207 1.667579 48.011302 -0.816473 1.840616 53.666569 -0.000003 -0.000001 -0.000001 -69.697012 16.362620 51.671406 53.113463 -25.320771 2.749034 3.158550 2.763779 -18.840737 -0.941985 -6.111182 0.983091 0.000000 0.000000 -0.000000 -27.397395 4.428047 -38.294709 60.694290 11.295652 -5.799699 -37.319348 -11.919096 32.647468 0.691022 3.168778 1.304304 0.000000 0.000000 -0.000000 
-0.073429 26.726349 0.094385 11.401077 -49.292143 10.973982 10.906144 2.542999 -2.047270 6.255489 5.389552 -4.873395 0.000000 0.000000 0.000000 -5.586804 6.304859 -3.562655 3.088691 10.429327 -1.660140 -4.392336 23.236800 -3.332446 0.000001 -0.000000 -0.000000 -2.019136 -15.755245 -4.014502 0.000000 0.000000 0.000000 -14.105707 -0.623444 -44.437644 -18.714599 -20.851318 -11.947955 2.441579 -3.378184 5.069713 18.508498 -9.519183 13.182194 -0.822731 11.681118 -8.439629 5.706532 8.483125 -0.820705 -0.000004 -0.000001 -0.000003 -1.233363 -5.834176 -2.091537 0.116398 -0.357558 -7.916970 0.174356 -0.529900 -7.656295 -0.000001 0.000001 0.000000 1.870197 4.511109 -6.816996 0.462234 -1.098900 -14.694421 0.614968 -1.438393 -18.261909 -0.000001 0.000001 0.000000 2.992121 7.754492 -16.314025 -0.744034 -0.646160 -20.604032 -0.769987 -0.784659 -23.766681 -0.000002 0.000002 0.000004 -4.713484 23.018400 0.781672 0.000000 0.000000 0.000000 5.134850 -34.583089 56.017018 -23.493877 45.872124 23.282962 0.566503 28.887353 4.638306 55.149574 18.649538 -29.698281 -0.442575 -14.180526 7.313128 21.666992 -29.244497 9.142382 0.000003 -0.000002 0.000003 5.673377 7.585035 36.844154 1.050470 3.824470 68.900237 0.499581 3.026029 62.196461 0.000001 -0.000001 0.000001 -0.125689 1.886109 45.000763 -1.168996 3.204640 68.417622 -0.936402 1.813615 41.107555 -0.000001 -0.000001 0.000000 -5.312005 1.216659 58.508814 -0.745208 1.667586 48.011302 -0.816473 1.840618 53.666569 -0.000001 -0.000003 0.000002 -69.584833 16.637219 51.548220 52.519039 -25.446896 2.695324 3.627793 2.945633 -18.800005 -0.941916 -6.111156 0.983046 0.000000 0.000001 0.000000 -27.768387 4.396767 -38.234388 60.769942 11.547344 -5.897080 -37.264887 -11.988085 32.406830 1.092801 3.314004 1.213057 0.000000 -0.000001 -0.000000 
-0.007102 26.781002 -0.000024 11.469516 -49.875179 11.105606 10.968596 2.419506 -2.113320 6.354290 5.276287 -5.097349 0.000000 0.000000 0.000000 -5.456689 6.268699 -3.745260 3.317679 11.210755 -2.259809 -4.432844 23.483659 -3.578623 0.000000 0.000000 0.000000 -1.995282 -14.975012 -4.449683 0.000000 0.000000 0.000000 -15.399647 -1.800110 -44.184818 -16.719359 -18.848431 -10.461586 2.445815 -3.416943 4.703616 18.544988 -9.523117 13.157300 -0.583310 11.986407 -8.475810 5.706538 8.483131 -0.820702 -0.000003 0.000001 0.000002 -1.235128 -5.876081 -3.475772 0.099074 -0.464195 -10.309381 0.259720 -0.589133 -7.719286 -0.000001 -0.000001 0.000001 1.861497 4.401136 -8.437947 0.444002 -1.159372 -15.937558 0.592211 -1.498048 -19.505335 0.000000 0.000001 -0.000001 2.964551 7.622258 -17.927882 -0.763927 -0.709178 -21.846852 -0.794496 -0.848732 -25.009538 -0.000002 0.000002 0.000001 -4.584619 21.996512 0.859037 0.000000 0.000000 0.000000 3.917481 -34.011064 54.545768 -24.794669 47.064323 25.390636 1.270040 25.477661 3.269692 55.149577 18.649529 -29.698287 -0.442576 -14.180531 7.313126 21.666992 -29.244497 9.142379 0.000000 -0.000000 0.000001 5.673380 7.585036 36.844154 1.050469 3.824469 68.900237 0.499586 3.026031 62.196461 0.000000 -0.000001 -0.000000 -0.125685 1.886109 45.000763 -1.168996 3.204647 68.417622 -0.936402 1.813613 41.107555 0.000000 -0.000001 -0.000003 -5.312000 1.216658 58.508814 -0.745209 1.667578 48.011298 -0.816476 1.840615 53.666569 -0.000003 0.000000 0.000000 -69.112772 16.883871 51.748686 51.948018 -25.385310 2.624058 3.794830 3.268973 -19.080712 -0.942053 -6.111176 0.983189 0.000000 -0.000000 -0.000000 -28.592061 4.930313 -37.893411 61.037152 11.935116 -6.051406 -37.050450 -11.984035 32.102371 1.275840 3.411990 1.140891 0.000000 -0.000000 0.000000 
0.044705 26.831932 -0.112688 11.814877 -51.181633 11.492335 10.970223 2.289522 -2.103225 6.476592 5.132110 -5.328438 0.000000 0.000000 0.000000 -5.296076 6.214259 -3.930850 3.584025 12.331278 -3.379898 -4.754181 23.833786 -3.763394 0.000000 0.000000 -0.000000 -2.015819 -14.208167 -5.194978 0.000000 0.000000 0.000000 -16.027710 -2.045549 -43.591155 -14.809445 -17.988034 -9.625005 2.437469 -2.904192 4.341618 18.589449 -9.527909 13.127027 -0.292541 12.359945 -8.517085 5.706530 8.483124 -0.820709 0.000002 0.000002 -0.000000 -1.239077 -5.928152 -5.177459 0.071917 -0.593231 -13.229298 0.363738 -0.661531 -7.795350 0.000004 -0.000001 -0.000001 1.843027 4.267592 -10.432700 0.419864 -1.233180 -17.464068 0.562859 -1.570698 -21.032036 0.000001 0.000000 0.000000 2.926041 7.462795 -19.914233 -0.790669 -0.785838 -23.373099 -0.827721 -0.926055 -26.535761 -0.000002 0.000001 -0.000001 -4.353518 21.112395 0.723932 0.000000 0.000000 0.000000 2.380100 -32.998741 52.973468 -26.151838 48.354362 27.701407 2.106516 21.725672 1.792203 55.149577 18.649540 -29.698291 -0.442579 -14.180531 7.313128 21.666992 -29.244500 9.142382 -0.000002 -0.000001 0.000002 5.673384 7.585039 36.844154 1.050470 3.824471 68.900237 0.499583 3.026032 62.196461 -0.000001 -0.000001 0.000001 -0.125687 1.886117 45.000763 -1.168996 3.204638 68.417622 -0.936394 1.813616 41.107552 -0.000007 -0.000000 -0.000001 -5.312004 1.216666 58.508821 -0.745208 1.667579 48.011298 -0.816475 1.840618 53.666569 -0.000001 -0.000000 -0.000001 -68.102600 17.090568 52.444590 51.440569 -25.001107 2.531863 3.517956 3.748470 -19.829776 -0.941992 -6.111183 0.983090 0.000000 -0.000001 0.000000 -30.233020 6.043978 -37.505563 61.290429 13.054745 -6.187846 -35.889150 -11.813780 32.387890 1.605883 3.577006 1.020061 0.000000 -0.000000 0.000000 
